# xmcd CD database file
#
# Track frame offsets:
#	150
#	16098
#	28843
#	41128
#	56073
#	68445
#	85121
#	95350
#	106857
#	126206
#	139147
#	151145
#	164595
#	179712
#	195109
#	207379
#	222084
#	241721
#	255071
#
# Disc length: 3597 seconds
#
# Revision: 0
# Processed by: cddbd v1.5.2PL0 Copyright (c) Steve Scherf et al.
# Submitted via: CDex 1.51
#
DISCID=f50e0b13
DTITLE=Henry Salvador - Best Of 3CD
DYEAR=1900
DGENRE=Jazz
TTITLE0=J'ai vu
TTITLE1=Jardin d'hiver
TTITLE2=Chambre avec vue
TTITLE3=Dans mon île
TTITLE4=Syracuse
TTITLE5=J'ai tant rêvé
TTITLE6=Maladie d'amour
TTITLE7=Clopin clopant
TTITLE8=Les voleurs d'eau
TTITLE9=La jalousie
TTITLE10=Adieu Adios
TTITLE11=Fais semblant
TTITLE12=La muraille de Chine
TTITLE13=Jazz Méditerranée
TTITLE14=Ma chère et tendre
TTITLE15=Ailleurs
TTITLE16=Avec le temps
TTITLE17=Ma doudou
TTITLE18=C'est étonnant c'est Cannes
EXTD=
EXTT0=
EXTT1=
EXTT2=
EXTT3=
EXTT4=
EXTT5=
EXTT6=
EXTT7=
EXTT8=
EXTT9=
EXTT10=
EXTT11=
EXTT12=
EXTT13=
EXTT14=
EXTT15=
EXTT16=
EXTT17=
EXTT18=
PLAYORDER=
